<?xml version="1.0" encoding="utf-8"?>
<!-- Generator: Adobe Illustrator 24.0.3, SVG Export Plug-In . SVG Version: 6.00 Build 0)  -->
<svg version="1.1" id="Laag_1" xmlns="http://www.w3.org/2000/svg" xmlns:xlink="http://www.w3.org/1999/xlink" x="0px" y="0px"
	 viewBox="0 0 151.4 83" style="enable-background:new 0 0 151.4 83;" xml:space="preserve">
<style type="text/css">
	.st0{fill:#F9F9F9;}
	.st1{fill:#FFFFFF;}
</style>
<g>
	<polygon points="87.7,71.3 87.7,67.3 83.6,67.3 83.6,57.6 79.7,57.6 79.7,53.7 71.8,53.7 71.8,57.6 67.8,57.6 67.8,67.3 63.7,67.3 
		63.7,71.3 59.8,71.3 59.8,83 91.6,83 91.6,71.3 	"/>
	<polygon class="st0" points="79.7,71.2 79.7,57.6 71.7,57.6 71.7,71.2 63.7,71.2 63.7,79.2 71.7,79.2 79.7,79.2 87.7,79.2 
		87.7,71.2 	"/>
</g>
<g>
	<path d="M29.1,83V71.3h-3.9v-3.9h-9.4v-9.8h-4l0-3.9H0v25L3.8,79v4h4l8,0L29.1,83z M3.9,75.3L3.9,75.3L3.9,75.3L3.9,75.3z"/>
	<polygon class="st1" points="25.2,75.3 25.2,75.3 25.2,71.3 11.8,71.3 11.8,57.6 7.8,57.6 3.9,57.6 3.9,75.3 7.8,75.3 7.8,75.3 
		7.8,79 11.8,79 25.2,79 	"/>
</g>
<g>
	<polygon points="87.7,11.7 87.7,15.8 83.6,15.8 83.6,25.5 79.7,25.5 79.7,29.3 71.8,29.3 71.8,25.5 67.8,25.5 67.8,15.8 63.7,15.8 
		63.7,11.7 59.8,11.7 59.8,0 91.6,0 91.6,11.7 	"/>
	<polygon class="st0" points="79.7,11.8 79.7,25.5 71.7,25.5 71.7,11.8 63.7,11.8 63.7,3.9 71.7,3.9 79.7,3.9 87.7,3.9 87.7,11.8 	
		"/>
</g>
<g>
	<path d="M15.8,0l-8,0h-4v4L0,4.3v25h11.8l0-3.9h4v-9.8h9.4v-3.9h3.9V0L15.8,0z M3.9,7.7L3.9,7.7L3.9,7.7L3.9,7.7z"/>
	<polygon class="st1" points="25.2,7.7 25.2,7.8 25.2,11.7 11.8,11.7 11.8,25.4 7.8,25.4 3.9,25.4 3.9,7.7 7.8,7.7 7.8,7.7 7.8,4 
		11.8,4 25.2,4 	"/>
</g>
<g>
	<path d="M135.6,83l8,0h4v-4l3.8-0.3v-25h-11.8l0,3.9h-4v9.8h-9.4v3.9h-3.9V83L135.6,83z M147.5,75.3L147.5,75.3L147.5,75.3
		L147.5,75.3z"/>
	<polygon class="st1" points="126.2,75.3 126.2,75.3 126.2,71.3 139.6,71.3 139.6,57.6 143.5,57.6 147.5,57.6 147.5,75.3 
		143.5,75.3 143.5,75.3 143.5,79 139.6,79 126.2,79 	"/>
</g>
<g>
	<path d="M122.3,0v11.7h3.9v3.9h9.4v9.8h4l0,3.9h11.8v-25L147.6,4V0h-4l-8,0L122.3,0z M147.5,7.8L147.5,7.8L147.5,7.8L147.5,7.8z"/>
	<polygon class="st1" points="126.2,7.7 126.2,7.8 126.2,11.7 139.6,11.7 139.6,25.4 143.5,25.4 147.5,25.4 147.5,7.7 143.5,7.7 
		143.5,7.7 143.5,4 139.6,4 126.2,4 	"/>
</g>
</svg>
